# 3ds Max Wavefront OBJ Exporter v0.97b - (c)2007 guruware
# File Created: 22.08.2017 19:38:27

mtllib lobang kancing.mtl

#
# object Object120
#

v  35.7961 -41.8314 154.8821
v  35.7387 -41.5075 154.8842
v  35.9185 -41.4756 154.8865
v  35.9759 -41.7996 154.8844
v  35.7816 -41.8426 156.1744
v  35.9614 -41.8107 156.1767
v  35.9039 -41.4867 156.1789
v  35.7241 -41.5186 156.1766
# 8 vertices

vn 0.0112 0.0086 -0.9999
vn 0.0113 0.0086 -0.9999
vn -0.0113 -0.0086 0.9999
vn -0.0114 -0.0086 0.9999
vn 0.1746 -0.9846 -0.0065
vn 0.9846 0.1744 0.0126
vn -0.1746 0.9846 0.0065
vn -0.1745 0.9846 0.0065
vn -0.9846 -0.1745 -0.0126
vn -0.9846 -0.1744 -0.0126
vn -0.9846 -0.1746 -0.0126
# 11 vertex normals

vt 0.4941 0.1252 4.0556
vt 0.4778 0.0049 1.5260
vt 0.5210 0.0005 1.3889
vt 0.5100 0.1208 3.9262
vt 0.0210 0.9995 1.3888
vt -0.0222 0.9951 1.5259
vt -0.0059 0.8748 4.0556
vt 0.0100 0.8792 3.9262
vt 0.9941 0.8748 4.0556
vt 0.9778 0.9951 1.5259
# 10 texture coords

g Object120
usemtl default
s 2
f 1/1/1 2/2/2 3/3/2 4/4/1 
s 4
f 5/5/3 6/6/4 7/7/3 8/8/3 
s 8
f 1/1/5 4/4/5 6/6/5 5/5/5 
s 16
f 4/4/6 3/3/6 7/9/6 6/10/6 
s 32
f 3/3/7 2/2/7 8/8/8 7/7/8 
s 64
f 2/2/9 1/1/10 5/5/9 8/8/11 
# 6 polygons

#
# object Object134
#

v  35.7961 -41.8314 153.4332
v  35.7387 -41.5075 153.4353
v  35.9185 -41.4756 153.4376
v  35.9759 -41.7996 153.4354
v  35.7816 -41.8426 154.7255
v  35.9614 -41.8107 154.7278
v  35.9039 -41.4867 154.7299
v  35.7241 -41.5186 154.7276
# 8 vertices

vn 0.0112 0.0086 -0.9999
vn 0.0113 0.0086 -0.9999
vn -0.0113 -0.0086 0.9999
vn -0.0114 -0.0086 0.9999
vn 0.1746 -0.9846 -0.0065
vn 0.9846 0.1744 0.0126
vn -0.1746 0.9846 0.0065
vn -0.1745 0.9846 0.0065
vn -0.9846 -0.1745 -0.0126
vn -0.9846 -0.1744 -0.0126
vn -0.9846 -0.1746 -0.0126
# 11 vertex normals

vt 0.4941 0.1252 4.0556
vt 0.4778 0.0049 1.5260
vt 0.5210 0.0005 1.3889
vt 0.5100 0.1208 3.9262
vt 0.0210 0.9995 1.3888
vt -0.0222 0.9951 1.5259
vt -0.0059 0.8748 4.0556
vt 0.0100 0.8792 3.9262
vt 0.9941 0.8748 4.0556
vt 0.9778 0.9951 1.5259
# 10 texture coords

g Object134
usemtl default
s 2
f 9/11/12 10/12/13 11/13/13 12/14/12 
s 4
f 13/15/14 14/16/15 15/17/14 16/18/14 
s 8
f 9/11/16 12/14/16 14/16/16 13/15/16 
s 16
f 12/14/17 11/13/17 15/19/17 14/20/17 
s 32
f 11/13/18 10/12/18 16/18/19 15/17/19 
s 64
f 10/12/20 9/11/21 13/15/20 16/18/22 
# 6 polygons

#
# object Object130
#

v  32.7445 -42.5825 151.2489
v  32.7888 -42.2794 151.1288
v  32.6084 -42.2516 151.1324
v  32.5640 -42.5547 151.2525
v  32.8396 -42.1197 152.4519
v  32.6592 -42.0919 152.4555
v  32.7035 -41.7888 152.3354
v  32.8840 -41.8166 152.3318
# 8 vertices

vn -0.0736 -0.3581 -0.9308
vn 0.0737 0.3581 0.9308
vn 0.0736 0.3581 0.9308
vn -0.1348 -0.9212 0.3651
vn -0.9881 0.1523 0.0196
vn 0.1348 0.9212 -0.3651
vn 0.1347 0.9212 -0.3650
vn 0.9881 -0.1523 -0.0196
vn 0.9881 -0.1524 -0.0196
# 9 vertex normals

vt 0.4941 0.1252 4.0556
vt 0.4778 0.0049 1.5260
vt 0.5210 0.0005 1.3889
vt 0.5100 0.1208 3.9262
vt 0.0210 0.9995 1.3888
vt -0.0222 0.9951 1.5259
vt -0.0059 0.8748 4.0556
vt 0.0100 0.8792 3.9262
vt 0.9941 0.8748 4.0556
vt 0.9778 0.9951 1.5259
# 10 texture coords

g Object130
usemtl default
s 2
f 20/24/23 19/23/23 18/22/23 17/21/23 
s 4
f 24/28/25 23/27/24 22/26/24 21/25/24 
s 8
f 21/25/26 22/26/26 20/24/26 17/21/26 
s 16
f 22/30/27 23/29/27 19/23/27 20/24/27 
s 32
f 23/27/29 24/28/29 18/22/28 19/23/28 
s 64
f 24/28/31 21/25/31 17/21/30 18/22/30 
# 6 polygons

#
# object Object123
#

v  38.8469 -42.4985 151.2622
v  38.6879 -42.2324 151.1519
v  38.8477 -42.1488 151.1233
v  39.0067 -42.4149 151.2335
v  38.8126 -42.0214 152.4629
v  38.9724 -41.9378 152.4342
v  38.8133 -41.6717 152.3239
v  38.6535 -41.7553 152.3526
# 8 vertices

vn 0.0265 -0.3691 -0.9290
vn 0.0266 -0.3691 -0.9290
vn -0.0266 0.3691 0.9290
vn -0.0267 0.3691 0.9290
vn 0.4834 -0.8087 0.3352
vn 0.8750 0.4579 -0.1569
vn -0.4834 0.8087 -0.3352
vn -0.4833 0.8087 -0.3352
vn -0.8750 -0.4579 0.1569
vn -0.8750 -0.4580 0.1569
# 10 vertex normals

vt 0.4941 0.1252 4.0556
vt 0.4778 0.0049 1.5260
vt 0.5210 0.0005 1.3889
vt 0.5100 0.1208 3.9262
vt 0.0210 0.9995 1.3888
vt -0.0222 0.9951 1.5259
vt -0.0059 0.8748 4.0556
vt 0.0100 0.8792 3.9262
vt 0.9941 0.8748 4.0556
vt 0.9778 0.9951 1.5259
# 10 texture coords

g Object123
usemtl default
s 2
f 25/31/32 26/32/33 27/33/33 28/34/32 
s 4
f 29/35/34 30/36/35 31/37/34 32/38/34 
s 8
f 25/31/36 28/34/36 30/36/36 29/35/36 
s 16
f 28/34/37 27/33/37 31/39/37 30/40/37 
s 32
f 27/33/38 26/32/38 32/38/39 31/37/39 
s 64
f 26/32/40 25/31/40 29/35/41 32/38/41 
# 6 polygons

