# 3ds Max Wavefront OBJ Exporter v0.97b - (c)2007 guruware
# File Created: 22.08.2017 05:31:05

mtllib lobang kancing.mtl

#
# object Object120
#

v  35.7961 -41.8314 154.3883
v  35.7387 -41.5075 154.3905
v  35.9185 -41.4756 154.3928
v  35.9759 -41.7996 154.3906
v  35.7816 -41.8426 155.6806
v  35.9614 -41.8107 155.6830
v  35.9039 -41.4867 155.6851
v  35.7241 -41.5186 155.6828
# 8 vertices

vn 0.0112 0.0086 -0.9999
vn 0.0113 0.0086 -0.9999
vn -0.0113 -0.0086 0.9999
vn -0.0114 -0.0086 0.9999
vn 0.1746 -0.9846 -0.0065
vn 0.9846 0.1744 0.0126
vn -0.1746 0.9846 0.0065
vn -0.1745 0.9846 0.0065
vn -0.9846 -0.1745 -0.0126
vn -0.9846 -0.1744 -0.0126
vn -0.9846 -0.1746 -0.0126
# 11 vertex normals

vt 0.4941 0.1252 4.0556
vt 0.4778 0.0049 1.5260
vt 0.5210 0.0005 1.3889
vt 0.5100 0.1208 3.9262
vt 0.0210 0.9995 1.3888
vt -0.0222 0.9951 1.5259
vt -0.0059 0.8748 4.0556
vt 0.0100 0.8792 3.9262
vt 0.9941 0.8748 4.0556
vt 0.9778 0.9951 1.5259
# 10 texture coords

g Object120
usemtl default
s 2
f 1/1/1 2/2/2 3/3/2 4/4/1 
s 4
f 5/5/3 6/6/4 7/7/3 8/8/3 
s 8
f 1/1/5 4/4/5 6/6/5 5/5/5 
s 16
f 4/4/6 3/3/6 7/9/6 6/10/6 
s 32
f 3/3/7 2/2/7 8/8/8 7/7/8 
s 64
f 2/2/9 1/1/10 5/5/9 8/8/11 
# 6 polygons

