# 3ds Max Wavefront OBJ Exporter v0.97b - (c)2007 guruware
# File Created: 22.08.2017 03:58:07

mtllib lobang kancing.mtl

#
# object Object120
#

v  35.7961 -41.8314 154.3883
v  35.7387 -41.5075 154.3905
v  35.9185 -41.4756 154.3928
v  35.9759 -41.7996 154.3906
v  35.7816 -41.8426 155.6806
v  35.9614 -41.8107 155.6830
v  35.9039 -41.4867 155.6851
v  35.7241 -41.5186 155.6828
# 8 vertices

vn 0.0112 0.0086 -0.9999
vn 0.0113 0.0086 -0.9999
vn -0.0113 -0.0086 0.9999
vn -0.0114 -0.0086 0.9999
vn 0.1746 -0.9846 -0.0065
vn 0.9846 0.1744 0.0126
vn -0.1746 0.9846 0.0065
vn -0.1745 0.9846 0.0065
vn -0.9846 -0.1745 -0.0126
vn -0.9846 -0.1744 -0.0126
vn -0.9846 -0.1746 -0.0126
# 11 vertex normals

vt 0.4941 0.1252 4.0556
vt 0.4778 0.0049 1.5260
vt 0.5210 0.0005 1.3889
vt 0.5100 0.1208 3.9262
vt 0.0210 0.9995 1.3888
vt -0.0222 0.9951 1.5259
vt -0.0059 0.8748 4.0556
vt 0.0100 0.8792 3.9262
vt 0.9941 0.8748 4.0556
vt 0.9778 0.9951 1.5259
# 10 texture coords

g Object120
usemtl default
s 2
f 1/1/1 2/2/2 3/3/2 4/4/1 
s 4
f 5/5/3 6/6/4 7/7/3 8/8/3 
s 8
f 1/1/5 4/4/5 6/6/5 5/5/5 
s 16
f 4/4/6 3/3/6 7/9/6 6/10/6 
s 32
f 3/3/7 2/2/7 8/8/8 7/7/8 
s 64
f 2/2/9 1/1/10 5/5/9 8/8/11 
# 6 polygons

#
# object Object126
#

v  30.9546 -42.6863 151.2622
v  31.1464 -42.4427 151.1519
v  30.9986 -42.3393 151.1232
v  30.8068 -42.5829 151.2335
v  31.0497 -42.2175 152.4628
v  30.9020 -42.1141 152.4342
v  31.0938 -41.8706 152.3239
v  31.2416 -41.9740 152.3526
# 8 vertices

vn -0.0736 -0.3627 -0.9290
vn -0.0737 -0.3627 -0.9290
vn 0.0737 0.3627 0.9290
vn 0.0736 0.3627 0.9290
vn -0.5829 -0.7402 0.3352
vn -0.8092 0.5662 -0.1569
vn 0.5829 0.7402 -0.3352
vn 0.8092 -0.5662 0.1569
vn 0.8091 -0.5663 0.1569
# 9 vertex normals

vt 0.4941 0.1252 4.0556
vt 0.4778 0.0049 1.5260
vt 0.5210 0.0005 1.3889
vt 0.5100 0.1208 3.9262
vt 0.0210 0.9995 1.3888
vt -0.0222 0.9951 1.5259
vt -0.0059 0.8748 4.0556
vt 0.0100 0.8792 3.9262
vt 0.9941 0.8748 4.0556
vt 0.9778 0.9951 1.5259
# 10 texture coords

g Object126
usemtl default
s 2
f 12/14/12 11/13/12 10/12/13 9/11/12 
s 4
f 16/18/15 15/17/14 14/16/14 13/15/14 
s 8
f 13/15/16 14/16/16 12/14/16 9/11/16 
s 16
f 14/20/17 15/19/17 11/13/17 12/14/17 
s 32
f 15/17/18 16/18/18 10/12/18 11/13/18 
s 64
f 16/18/20 13/15/20 9/11/19 10/12/19 
# 6 polygons

#
# object Object123
#

v  40.9444 -42.2749 151.2622
v  40.7526 -42.0314 151.1519
v  40.9003 -41.9280 151.1232
v  41.0921 -42.1715 151.2335
v  40.8492 -41.8061 152.4629
v  40.9970 -41.7027 152.4342
v  40.8052 -41.4592 152.3239
v  40.6574 -41.5626 152.3526
# 8 vertices

vn 0.0736 -0.3627 -0.9290
vn 0.0737 -0.3627 -0.9290
vn -0.0737 0.3627 0.9290
vn -0.0736 0.3627 0.9290
vn 0.5829 -0.7402 0.3352
vn 0.8092 0.5662 -0.1569
vn -0.5829 0.7402 -0.3352
vn -0.8092 -0.5662 0.1569
vn -0.8091 -0.5663 0.1569
# 9 vertex normals

vt 0.4941 0.1252 4.0556
vt 0.4778 0.0049 1.5260
vt 0.5210 0.0005 1.3889
vt 0.5100 0.1208 3.9262
vt 0.0210 0.9995 1.3888
vt -0.0222 0.9951 1.5259
vt -0.0059 0.8748 4.0556
vt 0.0100 0.8792 3.9262
vt 0.9941 0.8748 4.0556
vt 0.9778 0.9951 1.5259
# 10 texture coords

g Object123
usemtl default
s 2
f 17/21/21 18/22/22 19/23/21 20/24/21 
s 4
f 21/25/23 22/26/23 23/27/23 24/28/24 
s 8
f 17/21/25 20/24/25 22/26/25 21/25/25 
s 16
f 20/24/26 19/23/26 23/29/26 22/30/26 
s 32
f 19/23/27 18/22/27 24/28/27 23/27/27 
s 64
f 18/22/28 17/21/28 21/25/29 24/28/29 
# 6 polygons

