# 3ds Max Wavefront OBJ Exporter v0.97b - (c)2007 guruware
# File Created: 24.08.2017 05:31:39

mtllib lobang kancing.mtl

#
# object Object120
#

v  35.7738 -41.8314 154.1606
v  35.7164 -41.5075 154.1627
v  35.8962 -41.4756 154.1650
v  35.9536 -41.7996 154.1628
v  35.7593 -41.8426 155.4529
v  35.9390 -41.8107 155.4552
v  35.8816 -41.4867 155.4573
v  35.7018 -41.5186 155.4550
# 8 vertices

vn 0.0112 0.0086 -0.9999
vn 0.0113 0.0086 -0.9999
vn -0.0113 -0.0086 0.9999
vn -0.0114 -0.0086 0.9999
vn 0.1746 -0.9846 -0.0065
vn 0.9846 0.1744 0.0126
vn -0.1746 0.9846 0.0065
vn -0.1745 0.9846 0.0065
vn -0.9846 -0.1745 -0.0126
vn -0.9846 -0.1744 -0.0126
vn -0.9846 -0.1746 -0.0126
# 11 vertex normals

vt 0.4941 0.1252 4.0556
vt 0.4778 0.0049 1.5260
vt 0.5210 0.0005 1.3889
vt 0.5100 0.1208 3.9262
vt 0.0210 0.9995 1.3888
vt -0.0222 0.9951 1.5259
vt -0.0059 0.8748 4.0556
vt 0.0100 0.8792 3.9262
vt 0.9941 0.8748 4.0556
vt 0.9778 0.9951 1.5259
# 10 texture coords

g Object120
usemtl default
s 2
f 1/1/1 2/2/2 3/3/2 4/4/1 
s 4
f 5/5/3 6/6/4 7/7/3 8/8/3 
s 8
f 1/1/5 4/4/5 6/6/5 5/5/5 
s 16
f 4/4/6 3/3/6 7/9/6 6/10/6 
s 32
f 3/3/7 2/2/7 8/8/8 7/7/8 
s 64
f 2/2/9 1/1/10 5/5/9 8/8/11 
# 6 polygons

#
# object Object137
#

v  41.0487 -40.6998 154.9899
v  40.8500 -40.4404 154.9502
v  40.9931 -40.3282 154.9675
v  41.1917 -40.5876 155.0071
v  40.8569 -40.6515 156.2671
v  41.0000 -40.5393 156.2843
v  40.8014 -40.2800 156.2447
v  40.6583 -40.3922 156.2275
# 8 vertices

vn 0.1483 -0.0374 -0.9882
vn 0.1484 -0.0374 -0.9882
vn -0.1484 0.0373 0.9882
vn -0.1483 0.0373 0.9882
vn 0.6037 -0.7881 0.1204
vn 0.7833 0.6144 0.0944
vn 0.7833 0.6144 0.0943
vn -0.6037 0.7881 -0.1204
vn -0.7833 -0.6144 -0.0944
vn -0.7833 -0.6145 -0.0944
vn -0.7832 -0.6145 -0.0944
# 11 vertex normals

vt 0.4941 0.1252 4.0556
vt 0.4778 0.0049 1.5260
vt 0.5210 0.0005 1.3889
vt 0.5100 0.1208 3.9262
vt 0.0210 0.9995 1.3888
vt -0.0222 0.9951 1.5259
vt -0.0059 0.8748 4.0556
vt 0.0100 0.8792 3.9262
vt 0.9941 0.8748 4.0556
vt 0.9778 0.9951 1.5259
# 10 texture coords

g Object137
usemtl default
s 2
f 9/11/12 10/12/13 11/13/12 12/14/12 
s 4
f 13/15/14 14/16/14 15/17/14 16/18/15 
s 8
f 9/11/16 12/14/16 14/16/16 13/15/16 
s 16
f 12/14/17 11/13/17 15/19/17 14/20/18 
s 32
f 11/13/19 10/12/19 16/18/19 15/17/19 
s 64
f 10/12/20 9/11/20 13/15/21 16/18/22 
# 6 polygons

