# 3ds Max Wavefront OBJ Exporter v0.97b - (c)2007 guruware
# File Created: 28.08.2017 00:29:37

mtllib lobang kancing.mtl

#
# object Object134
#

v  35.7961 -41.8314 153.5589
v  35.7387 -41.5075 153.5611
v  35.9185 -41.4756 153.5634
v  35.9759 -41.7996 153.5612
v  35.7816 -41.8426 154.8512
v  35.9614 -41.8107 154.8536
v  35.9039 -41.4867 154.8557
v  35.7241 -41.5186 154.8534
# 8 vertices

vn 0.0112 0.0086 -0.9999
vn 0.0113 0.0086 -0.9999
vn -0.0113 -0.0086 0.9999
vn -0.0114 -0.0086 0.9999
vn 0.1746 -0.9846 -0.0065
vn 0.9846 0.1744 0.0126
vn -0.1746 0.9846 0.0065
vn -0.1745 0.9846 0.0065
vn -0.9846 -0.1745 -0.0126
vn -0.9846 -0.1744 -0.0126
vn -0.9846 -0.1746 -0.0126
# 11 vertex normals

vt 0.1431 0.6493 0.0000
vt 0.0487 0.7590 0.0000
vt -0.0122 0.7066 0.0000
vt 0.0822 0.5969 0.0000
vt 0.1492 0.9199 0.0000
vt 0.1369 0.9993 0.0000
vt -0.0061 0.9773 0.0000
vt 0.0061 0.8979 0.0000
vt 0.3337 0.6301 0.0000
vt 0.2533 0.6308 0.0000
vt 0.2482 0.0622 0.0000
vt 0.3285 0.0614 0.0000
vt 1.0684 0.6143 0.0000
vt 0.9237 0.6157 0.0000
vt 0.9178 0.0471 0.0000
vt 1.0626 0.0456 0.0000
vt 0.2318 0.6322 0.0000
vt 0.1515 0.6331 0.0000
vt 0.1451 0.0645 0.0000
vt 0.2255 0.0636 0.0000
vt 0.7424 0.6215 0.0000
vt 0.5976 0.6231 0.0000
vt 0.5913 0.0545 0.0000
vt 0.7360 0.0528 0.0000
# 24 texture coords

g Object134
usemtl Material__39
s 2
f 1/1/1 2/2/2 3/3/2 4/4/1 
s 4
f 5/5/3 6/6/4 7/7/3 8/8/3 
s 8
f 1/9/5 4/10/5 6/11/5 5/12/5 
s 16
f 4/13/6 3/14/6 7/15/6 6/16/6 
s 32
f 3/17/7 2/18/7 8/19/8 7/20/8 
s 64
f 2/21/9 1/22/10 5/23/9 8/24/11 
# 6 polygons

#
# object Object143
#

v  31.5732 -43.0032 150.6658
v  31.7400 -42.7398 150.5608
v  31.5878 -42.6394 150.5710
v  31.4210 -42.9028 150.6761
v  31.8585 -42.6963 151.8885
v  31.7063 -42.5958 151.8987
v  31.8731 -42.3324 151.7937
v  32.0253 -42.4328 151.7834
# 8 vertices

vn -0.2207 -0.2375 -0.9460
vn -0.2208 -0.2375 -0.9460
vn 0.2208 0.2375 0.9460
vn 0.2207 0.2375 0.9460
vn -0.5069 -0.8007 0.3193
vn -0.8333 0.5500 0.0564
vn -0.8333 0.5500 0.0563
vn 0.5069 0.8007 -0.3193
vn 0.8333 -0.5500 -0.0564
vn 0.8332 -0.5501 -0.0563
# 10 vertex normals

vt 0.1431 0.6493 0.0000
vt 0.0487 0.7590 0.0000
vt -0.0122 0.7066 0.0000
vt 0.0822 0.5969 0.0000
vt 0.1492 0.9199 0.0000
vt 0.1369 0.9993 0.0000
vt -0.0061 0.9773 0.0000
vt 0.0061 0.8979 0.0000
vt 0.3337 0.6301 0.0000
vt 0.2533 0.6308 0.0000
vt 0.2482 0.0622 0.0000
vt 0.3285 0.0614 0.0000
vt 1.0684 0.6143 0.0000
vt 0.9237 0.6157 0.0000
vt 0.9178 0.0471 0.0000
vt 1.0626 0.0456 0.0000
vt 0.2318 0.6322 0.0000
vt 0.1515 0.6331 0.0000
vt 0.1451 0.0645 0.0000
vt 0.2255 0.0636 0.0000
vt 0.7424 0.6215 0.0000
vt 0.5976 0.6231 0.0000
vt 0.5913 0.0545 0.0000
vt 0.7360 0.0528 0.0000
# 24 texture coords

g Object143
usemtl Material__39
s 2
f 12/28/12 11/27/12 10/26/13 9/25/12 
s 4
f 16/32/15 15/31/14 14/30/14 13/29/14 
s 8
f 13/36/16 14/35/16 12/34/16 9/33/16 
s 16
f 14/40/18 15/39/18 11/38/17 12/37/17 
s 32
f 15/44/19 16/43/19 10/42/19 11/41/19 
s 64
f 16/48/21 13/47/21 9/46/20 10/45/20 
# 6 polygons

#
# object Object140
#

v  40.1800 -42.4728 150.6658
v  40.0133 -42.2094 150.5607
v  40.1654 -42.1090 150.5710
v  40.3322 -42.3724 150.6761
v  39.8948 -42.1659 151.8884
v  40.0469 -42.0654 151.8987
v  39.8801 -41.8020 151.7937
v  39.7279 -41.9024 151.7834
# 8 vertices

vn 0.2207 -0.2375 -0.9460
vn 0.2208 -0.2375 -0.9460
vn -0.2208 0.2375 0.9460
vn -0.2207 0.2375 0.9460
vn 0.5069 -0.8007 0.3193
vn 0.8333 0.5500 0.0564
vn 0.8333 0.5500 0.0563
vn -0.5069 0.8007 -0.3193
vn -0.8333 -0.5500 -0.0564
vn -0.8332 -0.5501 -0.0563
# 10 vertex normals

vt 0.1431 0.6493 0.0000
vt 0.0487 0.7590 0.0000
vt -0.0122 0.7066 0.0000
vt 0.0822 0.5969 0.0000
vt 0.1492 0.9199 0.0000
vt 0.1369 0.9993 0.0000
vt -0.0061 0.9773 0.0000
vt 0.0061 0.8979 0.0000
vt 0.3337 0.6301 0.0000
vt 0.2533 0.6308 0.0000
vt 0.2482 0.0622 0.0000
vt 0.3285 0.0614 0.0000
vt 1.0684 0.6143 0.0000
vt 0.9237 0.6157 0.0000
vt 0.9178 0.0471 0.0000
vt 1.0626 0.0456 0.0000
vt 0.2318 0.6322 0.0000
vt 0.1515 0.6331 0.0000
vt 0.1451 0.0645 0.0000
vt 0.2255 0.0636 0.0000
vt 0.7424 0.6215 0.0000
vt 0.5976 0.6231 0.0000
vt 0.5913 0.0545 0.0000
vt 0.7360 0.0528 0.0000
# 24 texture coords

g Object140
usemtl Material__39
s 2
f 17/49/22 18/50/23 19/51/22 20/52/22 
s 4
f 21/53/24 22/54/24 23/55/24 24/56/25 
s 8
f 17/57/26 20/58/26 22/59/26 21/60/26 
s 16
f 20/61/27 19/62/27 23/63/28 22/64/28 
s 32
f 19/65/29 18/66/29 24/67/29 23/68/29 
s 64
f 18/69/30 17/70/30 21/71/31 24/72/31 
# 6 polygons

