# 3ds Max Wavefront OBJ Exporter v0.97b - (c)2007 guruware
# File Created: 28.04.2017 11:19:59

mtllib pocket1.mtl

#
# object Box001
#

v  55.8460 61.9086 147.0129
v  56.4260 61.9797 150.4179
v  40.9950 62.0347 153.0429
v  40.4160 61.9637 149.6379
v  71.5070 61.8546 144.7319
v  72.3600 61.9257 148.0789
v  85.4320 61.5626 139.0479
v  86.8680 60.8097 142.0979
v  99.6650 62.8707 132.6689
v  101.1010 62.1166 135.7179
v  55.8460 153.7247 130.8079
v  40.4160 154.6427 133.2669
v  40.9950 155.8347 136.4579
v  56.4260 154.9156 133.9979
v  71.2770 152.8057 128.3489
v  71.8560 153.9977 131.5389
v  86.7070 151.8877 125.8889
v  87.2860 153.0786 129.0789
v  102.1370 150.9686 123.4299
v  102.7170 152.1606 126.6199
v  56.4260 71.5967 150.2179
v  40.9950 71.6505 152.8429
v  72.3440 71.5416 147.8799
v  87.0140 70.1616 144.3409
v  101.2470 71.4696 137.9609
v  56.4260 81.2126 150.0189
v  40.9950 81.2676 152.6429
v  72.3280 81.1586 147.6809
v  87.1600 79.5146 146.5829
v  101.3930 80.8215 140.2039
v  56.4260 90.8297 149.8189
v  40.9950 90.8846 152.4439
v  72.3120 90.7756 147.4819
v  87.4790 90.7207 143.6179
v  102.6470 90.6666 139.7539
v  56.4260 100.4467 149.6189
v  40.9950 100.5006 152.2439
v  71.8560 100.3916 146.9949
v  87.2860 100.3378 144.3699
v  102.7170 100.2826 141.7449
v  56.4260 110.0636 149.4199
v  40.9950 110.1177 152.0439
v  71.8560 110.0085 146.7949
v  87.2860 109.9547 144.1699
v  102.7170 109.8997 141.5449
v  56.4260 118.8717 147.4579
v  40.9950 119.7906 149.9179
v  71.8560 117.9537 144.9989
v  87.2860 117.0347 142.5399
v  102.7170 116.1167 140.0799
v  56.4260 127.8826 144.0929
v  40.9950 128.8016 146.5529
v  71.8560 126.9646 141.6339
v  87.2860 126.0458 139.1749
v  102.7170 125.1276 136.7149
v  56.4260 136.8937 140.7279
v  40.9950 137.8126 143.1879
v  71.8560 135.9757 138.2689
v  87.2860 135.0566 135.8099
v  102.7170 134.1387 133.3499
v  56.4260 145.9045 137.3629
v  40.9950 146.8236 139.8229
v  71.8560 144.9866 134.9039
v  87.2860 144.0675 132.4449
v  102.7170 143.1495 129.9849
v  99.8110 72.2238 134.9109
v  99.9570 81.5757 137.1539
v  101.7940 90.5956 136.4069
v  102.1370 100.2125 138.3399
v  102.1370 109.8287 138.1409
v  102.1370 114.9255 136.8899
v  102.1370 123.9366 133.5249
v  102.1370 132.9476 130.1599
v  102.1370 141.9586 126.7949
v  85.5780 70.9156 141.2909
v  71.4910 71.4716 144.5329
v  55.8460 71.5256 146.8139
v  40.4160 71.5807 149.4379
v  85.7240 80.2677 143.5339
v  71.4750 81.0876 144.3339
v  55.8460 81.1426 146.6139
v  40.4160 81.1967 149.2389
v  86.6260 90.6506 140.2709
v  71.4590 90.7047 144.1349
v  55.8460 90.7596 146.4139
v  40.4160 90.8136 149.0389
v  86.7070 100.2666 140.9649
v  71.2770 100.3217 143.5899
v  55.8460 100.3757 146.2149
v  40.4160 100.4307 148.8389
v  86.7070 109.8837 140.7649
v  71.2770 109.9376 143.3899
v  55.8460 109.9927 146.0149
v  40.4160 110.0476 148.6399
v  86.7070 115.8436 139.3499
v  71.2770 116.7616 141.8089
v  55.8460 117.6807 144.2679
v  40.4160 118.5986 146.7279
v  86.7070 124.8546 135.9839
v  71.2770 125.7737 138.4439
v  55.8460 126.6917 140.9029
v  40.4160 127.6096 143.3629
v  86.7070 133.8657 132.6189
v  71.2770 134.7837 135.0789
v  55.8460 135.7028 137.5379
v  40.4160 136.6207 139.9969
v  86.7070 142.8766 129.2539
v  71.2770 143.7946 131.7139
v  55.8460 144.7136 134.1729
v  40.4160 145.6316 136.6319
# 110 vertices

vn 0.0594 -0.9398 0.3365
vn 0.0592 -0.9398 0.3366
vn 0.0595 -0.9398 0.3365
vn 0.0528 -0.9398 0.3377
vn 0.0506 -0.9398 0.3380
vn 0.0941 -0.9403 0.3271
vn -0.0699 -0.9325 0.3545
vn 0.0958 -0.9403 0.3267
vn 0.0000 0.9368 -0.3498
vn -0.0015 -0.9263 0.3768
vn 0.0339 -0.9280 0.3711
vn 0.0259 -0.9277 0.3724
vn 0.0466 -0.9307 0.3627
vn 0.1929 -0.9230 0.3330
vn 0.4925 -0.8372 0.2377
vn 0.3751 -0.8826 0.2835
vn 0.4937 -0.8366 0.2372
vn -0.0014 -0.9263 0.3768
vn -0.1414 -0.9075 0.3956
vn 0.0529 -0.9121 0.4066
vn 0.4966 -0.8352 0.2363
vn -0.0012 -0.9263 0.3769
vn 0.0957 -0.9286 0.3586
vn 0.2398 -0.9151 0.3242
vn 0.6002 -0.7638 0.2374
vn 0.0322 -0.9274 0.3727
vn 0.0373 -0.9289 0.3685
vn 0.0371 -0.9288 0.3688
vn 0.0168 -0.9189 0.3941
vn 0.0257 -0.9236 0.3825
vn 0.0161 -0.9185 0.3950
vn 0.0152 -0.9180 0.3963
vn 0.0039 -0.9118 0.4107
vn 0.1224 -0.3864 0.9142
vn 0.1227 -0.3863 0.9142
vn 0.1224 -0.3857 0.9145
vn 0.1224 -0.3847 0.9149
vn 0.1216 -0.3845 0.9151
vn 0.1677 0.3449 0.9235
vn 0.9620 0.1453 -0.2310
vn 0.9627 0.1425 -0.2301
vn 0.9848 -0.0947 -0.1455
vn 0.9846 -0.0964 -0.1458
vn 0.9812 0.0308 -0.1903
vn 0.9826 0.0179 -0.1849
vn 0.9844 -0.0085 -0.1755
vn 0.9845 -0.0095 -0.1752
vn 0.9856 -0.0392 -0.1644
vn 0.9858 -0.0468 -0.1616
vn 0.9858 -0.0578 -0.1575
vn 0.9858 -0.0587 -0.1571
vn -0.3198 0.9007 -0.2941
vn -0.4937 0.8366 -0.2372
vn -0.4925 0.8372 -0.2378
vn -0.3143 0.8980 -0.3079
vn -0.0880 0.9284 -0.3611
vn 0.0033 0.9262 -0.3771
vn -0.0258 0.9277 -0.3724
vn -0.0339 0.9280 -0.3711
vn -0.4445 0.8487 -0.2866
vn -0.4969 0.8350 -0.2366
vn 0.1078 0.9165 -0.3851
vn 0.0031 0.9262 -0.3771
vn -0.5042 0.8181 -0.2767
vn -0.2832 0.9051 -0.3170
vn -0.1362 0.9251 -0.3546
vn 0.0030 0.9262 -0.3770
vn -0.0393 0.9302 -0.3649
vn -0.0365 0.9292 -0.3676
vn -0.0373 0.9288 -0.3687
vn -0.0321 0.9274 -0.3727
vn -0.0150 0.9177 -0.3969
vn -0.0048 0.9113 -0.4117
vn -0.0159 0.9183 -0.3955
vn -0.0166 0.9188 -0.3944
vn -0.0252 0.9235 -0.3827
vn -0.1223 0.3813 -0.9163
vn -0.1234 0.3804 -0.9165
vn -0.1224 0.3832 -0.9155
vn -0.1224 0.3845 -0.9150
vn -0.1221 0.3846 -0.9150
vn -0.1677 -0.3449 -0.9235
vn -0.9844 0.0086 0.1755
vn -0.9856 0.0367 0.1653
vn -0.9845 0.0093 0.1752
vn -0.9858 0.0578 0.1575
vn -0.9857 0.0448 0.1623
vn -0.9858 0.0587 0.1571
# 88 vertex normals

vt 0.7500 1.0000 0.0000
vt 0.7500 0.0000 0.0000
vt 1.0000 0.0000 0.0000
vt 1.0000 1.0000 0.0000
vt 0.5000 1.0000 0.0000
vt 0.5000 0.0000 0.0000
vt 0.2500 1.0000 0.0000
vt 0.2500 0.0000 0.0000
vt 0.0000 1.0000 0.0000
vt 0.0000 0.0000 0.0000
vt 0.2500 0.1000 0.0000
vt 0.0000 0.1000 0.0000
vt 0.5000 0.1000 0.0000
vt 0.7500 0.1000 0.0000
vt 1.0000 0.1000 0.0000
vt 0.2500 0.2000 0.0000
vt 0.0000 0.2000 0.0000
vt 0.5000 0.2000 0.0000
vt 0.7500 0.2000 0.0000
vt 1.0000 0.2000 0.0000
vt 0.2500 0.3000 0.0000
vt 0.0000 0.3000 0.0000
vt 0.5000 0.3000 0.0000
vt 0.7500 0.3000 0.0000
vt 1.0000 0.3000 0.0000
vt 0.2500 0.4000 0.0000
vt 0.0000 0.4000 0.0000
vt 0.5000 0.4000 0.0000
vt 0.7500 0.4000 0.0000
vt 1.0000 0.4000 0.0000
vt 0.2500 0.5000 0.0000
vt 0.0000 0.5000 0.0000
vt 0.5000 0.5000 0.0000
vt 0.7500 0.5000 0.0000
vt 1.0000 0.5000 0.0000
vt 0.2500 0.6000 0.0000
vt 0.0000 0.6000 0.0000
vt 0.5000 0.6000 0.0000
vt 0.7500 0.6000 0.0000
vt 1.0000 0.6000 0.0000
vt 0.2500 0.7000 0.0000
vt 0.0000 0.7000 0.0000
vt 0.5000 0.7000 0.0000
vt 0.7500 0.7000 0.0000
vt 1.0000 0.7000 0.0000
vt 0.2500 0.8000 0.0000
vt 0.0000 0.8000 0.0000
vt 0.5000 0.8000 0.0000
vt 0.7500 0.8000 0.0000
vt 1.0000 0.8000 0.0000
vt 0.2500 0.9000 0.0000
vt 0.0000 0.9000 0.0000
vt 0.5000 0.9000 0.0000
vt 0.7500 0.9000 0.0000
vt 1.0000 0.9000 0.0000
# 55 texture coords

g Box001
usemtl _pocket1_pocket1wire_087225143
s 2
f 1/1/1 2/2/2 3/3/3 4/4/3 
f 2/2/2 1/1/1 5/5/4 6/6/5 
f 5/5/4 7/7/6 8/8/7 6/6/5 
f 9/9/8 10/10/8 8/8/7 7/7/6 
s 4
f 11/7/9 12/9/9 13/10/9 14/8/9 
f 15/5/9 11/7/9 14/8/9 16/6/9 
f 17/1/9 15/5/9 16/6/9 18/2/9 
f 19/4/9 17/1/9 18/2/9 20/3/9 
s 8
f 21/11/10 22/12/11 3/10/11 2/8/12 
f 23/13/13 21/11/10 2/8/12 6/6/14 
f 6/6/14 8/2/15 24/14/16 23/13/13 
f 25/15/17 24/14/16 8/2/15 10/3/17 
f 26/16/18 27/17/11 22/12/11 21/11/10 
f 28/18/19 26/16/18 21/11/10 23/13/13 
f 23/13/13 24/14/16 29/19/20 28/18/19 
f 30/20/21 29/19/20 24/14/16 25/15/17 
f 31/21/22 32/22/11 27/17/11 26/16/18 
f 33/23/23 31/21/22 26/16/18 28/18/19 
f 28/18/19 29/19/20 34/24/24 33/23/23 
f 30/20/21 35/25/25 34/24/24 29/19/20 
f 36/26/11 37/27/11 32/22/11 31/21/22 
f 31/21/22 33/23/23 38/28/26 36/26/11 
f 33/23/23 34/24/24 39/29/27 38/28/26 
f 34/24/24 35/25/25 40/30/28 39/29/27 
f 41/31/29 42/32/30 37/27/11 36/26/11 
f 43/33/31 41/31/29 36/26/11 38/28/26 
f 44/34/32 43/33/31 38/28/26 39/29/27 
f 45/35/33 44/34/32 39/29/27 40/30/28 
f 46/36/34 47/37/35 42/32/30 41/31/29 
f 48/38/36 46/36/34 41/31/29 43/33/31 
f 49/39/37 48/38/36 43/33/31 44/34/32 
f 50/40/38 49/39/37 44/34/32 45/35/33 
f 51/41/39 52/42/39 47/37/35 46/36/34 
f 53/43/39 51/41/39 46/36/34 48/38/36 
f 54/44/39 53/43/39 48/38/36 49/39/37 
f 55/45/39 54/44/39 49/39/37 50/40/38 
f 56/46/39 57/47/39 52/42/39 51/41/39 
f 58/48/39 56/46/39 51/41/39 53/43/39 
f 59/49/39 58/48/39 53/43/39 54/44/39 
f 60/50/39 59/49/39 54/44/39 55/45/39 
f 61/51/39 62/52/39 57/47/39 56/46/39 
f 63/53/39 61/51/39 56/46/39 58/48/39 
f 64/54/39 63/53/39 58/48/39 59/49/39 
f 65/55/39 64/54/39 59/49/39 60/50/39 
f 14/7/39 13/9/39 62/52/39 61/51/39 
f 16/5/39 14/7/39 61/51/39 63/53/39 
f 18/1/39 16/5/39 63/53/39 64/54/39 
f 20/4/39 18/1/39 64/54/39 65/55/39 
s 16
f 66/15/40 25/12/40 10/10/40 9/3/40 
f 67/20/41 30/17/42 25/12/40 66/15/40 
f 67/20/41 68/25/43 35/22/44 30/17/42 
f 35/22/44 68/25/43 69/30/45 40/27/46 
f 70/35/47 45/32/48 40/27/46 69/30/45 
f 70/35/47 71/40/49 50/37/50 45/32/48 
f 72/45/51 55/42/51 50/37/50 71/40/49 
f 73/50/51 60/47/51 55/42/51 72/45/51 
f 74/55/51 65/52/51 60/47/51 73/50/51 
f 19/4/51 20/9/51 65/52/51 74/55/51 
s 32
f 75/11/52 66/12/53 9/10/53 7/8/54 
f 5/6/55 76/13/56 75/11/52 7/8/54 
f 77/14/57 76/13/56 5/6/55 1/2/58 
f 78/15/59 77/14/57 1/2/58 4/3/59 
f 79/16/60 67/17/61 66/12/53 75/11/52 
f 76/13/56 80/18/62 79/16/60 75/11/52 
f 81/19/63 80/18/62 76/13/56 77/14/57 
f 82/20/59 81/19/63 77/14/57 78/15/59 
f 67/17/61 79/16/60 83/21/64 68/22/65 
f 79/16/60 80/18/62 84/23/66 83/21/64 
f 85/24/67 84/23/66 80/18/62 81/19/63 
f 86/25/59 85/24/67 81/19/63 82/20/59 
f 83/21/64 87/26/68 69/27/69 68/22/65 
f 84/23/66 88/28/70 87/26/68 83/21/64 
f 85/24/67 89/29/71 88/28/70 84/23/66 
f 90/30/59 89/29/71 85/24/67 86/25/59 
f 91/31/72 70/32/73 69/27/69 87/26/68 
f 92/33/74 91/31/72 87/26/68 88/28/70 
f 93/34/75 92/33/74 88/28/70 89/29/71 
f 94/35/76 93/34/75 89/29/71 90/30/59 
f 70/32/73 91/31/72 95/36/77 71/37/78 
f 96/38/79 95/36/77 91/31/72 92/33/74 
f 97/39/80 96/38/79 92/33/74 93/34/75 
f 98/40/81 97/39/80 93/34/75 94/35/76 
f 99/41/82 72/42/82 71/37/78 95/36/77 
f 100/43/82 99/41/82 95/36/77 96/38/79 
f 101/44/82 100/43/82 96/38/79 97/39/80 
f 102/45/82 101/44/82 97/39/80 98/40/81 
f 103/46/82 73/47/82 72/42/82 99/41/82 
f 104/48/82 103/46/82 99/41/82 100/43/82 
f 105/49/82 104/48/82 100/43/82 101/44/82 
f 106/50/82 105/49/82 101/44/82 102/45/82 
f 107/51/82 74/52/82 73/47/82 103/46/82 
f 108/53/82 107/51/82 103/46/82 104/48/82 
f 109/54/82 108/53/82 104/48/82 105/49/82 
f 110/55/82 109/54/82 105/49/82 106/50/82 
f 17/7/82 19/9/82 74/52/82 107/51/82 
f 15/5/82 17/7/82 107/51/82 108/53/82 
f 11/1/82 15/5/82 108/53/82 109/54/82 
f 12/4/82 11/1/82 109/54/82 110/55/82 
s 64
f 22/15/83 78/12/83 4/10/83 3/3/83 
f 27/20/83 82/17/83 78/12/83 22/15/83 
f 32/25/83 86/22/83 82/17/83 27/20/83 
f 37/30/83 90/27/83 86/22/83 32/25/83 
f 42/35/84 94/32/85 90/27/83 37/30/83 
f 94/32/85 42/35/84 47/40/86 98/37/87 
f 52/45/88 102/42/88 98/37/87 47/40/86 
f 57/50/88 106/47/88 102/42/88 52/45/88 
f 62/55/88 110/52/88 106/47/88 57/50/88 
f 13/4/88 12/9/88 110/52/88 62/55/88 
# 108 polygons

