# 3ds Max Wavefront OBJ Exporter v0.97b - (c)2007 guruware
# File Created: 22.06.2017 17:58:04

mtllib lobang kancing.mtl

#
# object Object15
#

v  35.147655 -47.081909 90.461723
v  35.318359 -47.024391 90.432182
v  35.426464 -47.334423 90.453079
v  35.255714 -47.391968 90.482613
v  35.597607 -47.188965 91.725861
v  35.489552 -46.878918 91.704979
v  35.318798 -46.936451 91.734512
v  35.426903 -47.246521 91.755409
# 8 vertices

vn -0.132462 -0.112520 -0.984781
vn -0.132454 -0.112510 -0.984783
vn -0.132472 -0.112530 -0.984778
vn -0.132481 -0.112540 -0.984776
vn 0.132481 0.112542 0.984776
vn 0.132420 0.112474 0.984792
vn 0.132449 0.112507 0.984784
vn 0.132509 0.112574 0.984768
vn 0.328666 -0.942310 0.063485
vn 0.328684 -0.942304 0.063484
vn 0.328682 -0.942305 0.063484
vn 0.328664 -0.942311 0.063485
vn 0.935193 0.315027 -0.161776
vn 0.935192 0.315030 -0.161776
vn 0.935193 0.315029 -0.161776
vn 0.935194 0.315026 -0.161776
vn -0.328507 0.942364 -0.063514
vn -0.328520 0.942360 -0.063510
vn -0.328518 0.942360 -0.063511
vn -0.328505 0.942364 -0.063515
vn -0.935142 -0.315176 0.161785
vn -0.935143 -0.315173 0.161784
vn -0.935143 -0.315174 0.161784
vn -0.935141 -0.315176 0.161785
# 24 vertex normals

vt 0.273193 0.438339 -0.700928
vt 0.652954 0.401093 -0.694733
vt 0.843262 0.639435 -0.642090
vt 0.463501 0.676682 -0.648254
vt 0.273071 0.561676 1.700867
vt 0.463257 0.323334 1.648254
vt 0.843140 0.360580 1.642029
vt 0.652832 0.598923 1.694733
vt 0.843262 -0.642090 0.639435
vt 0.726929 1.700867 0.561676
vt 0.347168 1.694733 0.598923
vt 0.463501 -0.648254 0.676682
vt -0.694733 0.401093 0.652954
vt 1.648254 0.323334 0.536743
vt 1.700867 0.561676 0.726929
vt -0.642090 0.639435 0.843262
vt 0.726807 -0.700928 0.438339
vt 0.843140 1.642029 0.360580
vt 0.463257 1.648254 0.323334
vt 0.347046 -0.694733 0.401093
vt 1.648254 0.676682 0.463501
vt -0.694733 0.598923 0.347168
vt -0.642029 0.360580 0.156860
vt 1.700928 0.438339 0.273193
# 24 texture coords

g Object15
usemtl Material__4
s 2
f 1/1/1 2/2/2 3/3/3 4/4/4 
s 4
f 5/5/5 6/6/6 7/7/7 8/8/8 
s 8
f 3/9/9 5/10/10 8/11/11 4/12/12 
s 16
f 2/13/13 6/14/14 5/15/15 3/16/16 
s 32
f 1/17/17 7/18/18 6/19/19 2/20/20 
s 64
f 4/21/21 8/22/22 7/23/23 1/24/24 
# 6 polygons

#
# object Object14
#

v  35.793114 -46.043396 102.865601
v  35.975636 -46.041241 102.868515
v  35.978710 -46.366875 102.915565
v  35.796093 -46.369030 102.912636
v  35.956104 -46.182289 104.194565
v  35.952980 -45.856659 104.147507
v  35.770458 -45.858807 104.144608
v  35.773487 -46.184433 104.191666
# 8 vertices

vn 0.017529 -0.142797 -0.989597
vn 0.017516 -0.142804 -0.989596
vn 0.017544 -0.142789 -0.989598
vn 0.017557 -0.142781 -0.989599
vn -0.017460 0.142836 0.989592
vn -0.017432 0.142852 0.989591
vn -0.017445 0.142844 0.989591
vn -0.017473 0.142829 0.989593
vn 0.009383 -0.989678 0.143001
vn 0.009367 -0.989679 0.142998
vn 0.009368 -0.989679 0.142999
vn 0.009384 -0.989678 0.143001
vn 0.999803 0.011804 0.015975
vn 0.999803 0.011803 0.015975
vn -0.009368 0.989679 -0.142996
vn -0.009352 0.989679 -0.142998
vn -0.009353 0.989679 -0.142998
vn -0.009369 0.989679 -0.142996
vn -0.999804 -0.011620 -0.016002
vn -0.999804 -0.011619 -0.016002
# 20 vertex normals

vt 0.291211 1.305668 0.000496
vt 0.000171 1.229485 0.001114
vt 0.058789 0.000744 0.011078
vt 0.349829 0.076939 0.010452
vt 0.291211 0.194332 0.999496
vt 0.349829 1.423050 0.989525
vt 0.058789 1.499245 0.988914
vt 0.000171 0.270538 0.998886
vt 0.291211 0.016617 0.000496
vt 0.291211 1.499245 0.129555
vt 0.000171 1.498329 0.180359
vt 0.000171 0.015678 0.051292
vt 0.286880 0.001671 0.999512
vt 0.332045 1.484287 0.999512
vt 0.045344 1.499245 0.832031
vt 0.000174 0.016617 0.832031
vt 0.291211 0.000744 0.870445
vt 0.291211 1.483372 0.999496
vt 0.000171 1.484287 0.948700
vt 0.000171 0.001671 0.819656
vt 0.332048 0.015678 0.000488
vt 0.286874 1.498329 0.000488
vt 0.000176 1.483372 0.167969
vt 0.045344 0.000744 0.167969
# 24 texture coords

g Object14
usemtl Material__4
s 2
f 9/25/25 10/26/26 11/27/27 12/28/28 
s 4
f 13/29/29 14/30/30 15/31/31 16/32/32 
s 8
f 11/33/33 13/34/34 16/35/35 12/36/36 
s 16
f 10/37/37 14/38/38 13/39/38 11/40/37 
s 32
f 9/41/39 15/42/40 14/43/41 10/44/42 
s 64
f 12/45/43 16/46/44 15/47/44 9/48/43 
# 6 polygons

#
# object Object10
#

v  35.815380 -45.571789 114.140480
v  35.996826 -45.592052 114.141281
v  35.960255 -45.918785 114.154312
v  35.778809 -45.898521 114.153503
v  35.960255 -45.867310 115.445740
v  35.996826 -45.540581 115.432716
v  35.815380 -45.520317 115.431908
v  35.778809 -45.847042 115.444931
# 8 vertices

vn 0.000004 -0.039820 -0.999207
vn 0.000018 -0.039814 -0.999207
vn -0.000012 -0.039827 -0.999207
vn -0.000026 -0.039832 -0.999206
vn 0.000012 0.039827 0.999207
vn -0.000019 0.039814 0.999207
vn -0.000004 0.039820 0.999207
vn 0.000026 0.039833 0.999206
vn -0.111095 -0.993021 0.039581
vn 0.993797 -0.111122 0.004429
vn 0.111057 0.993025 -0.039581
vn 0.111039 0.993028 -0.039579
vn 0.111041 0.993027 -0.039579
vn 0.111059 0.993025 -0.039582
vn -0.993817 0.110938 -0.004422
vn -0.993817 0.110939 -0.004422
vn -0.993818 0.110938 -0.004422
# 17 vertex normals

vt 0.349556 1.244758 0.000496
vt 0.000205 1.172098 0.001114
vt 0.070649 0.000720 0.011078
vt 0.419795 0.073370 0.010460
vt 0.349351 0.185274 0.999496
vt 0.419795 1.356652 0.989532
vt 0.070444 1.429291 0.988914
vt 0.000205 0.257924 0.998878
vt 0.349351 0.015841 0.000504
vt 0.349351 1.429280 0.129562
vt 0.000205 1.428396 0.180367
vt 0.000205 0.014958 0.051308
vt 0.344252 0.001593 0.999512
vt 0.398457 1.415031 0.999512
vt 0.054416 1.429280 0.831787
vt 0.000211 0.015841 0.831787
vt 0.349556 0.000709 0.870461
vt 0.349556 1.414148 0.999504
vt 0.000205 1.415031 0.948708
vt 0.000205 0.001593 0.819649
vt 0.398451 0.014958 0.000488
vt 0.344246 1.428396 0.000488
vt 0.000208 1.414148 0.167725
vt 0.054407 0.000709 0.167725
# 24 texture coords

g Object10
usemtl Material__4
s 2
f 17/49/45 18/50/46 19/51/47 20/52/48 
s 4
f 21/53/49 22/54/50 23/55/51 24/56/52 
s 8
f 19/57/53 21/58/53 24/59/53 20/60/53 
s 16
f 18/61/54 22/62/54 21/63/54 19/64/54 
s 32
f 17/65/55 23/66/56 22/67/57 18/68/58 
s 64
f 20/69/59 24/70/60 23/71/60 17/72/61 
# 6 polygons

#
# object Object09
#

v  35.905079 -45.371529 126.149208
v  36.086475 -45.391792 126.150002
v  36.049950 -45.718521 126.163025
v  35.868458 -45.698257 126.162216
v  36.049950 -45.667042 127.454468
v  36.086475 -45.340317 127.441444
v  35.905079 -45.320045 127.440636
v  35.868458 -45.646778 127.453659
# 8 vertices

vn -0.000012 -0.039827 -0.999207
vn -0.000026 -0.039832 -0.999206
vn 0.000004 -0.039820 -0.999207
vn 0.000018 -0.039814 -0.999207
vn 0.000029 0.039856 0.999205
vn 0.000030 0.039856 0.999205
vn -0.111059 -0.993025 0.039584
vn -0.111058 -0.993025 0.039584
vn 0.993817 -0.110938 0.004422
vn 0.993817 -0.110939 0.004422
vn 0.993818 -0.110938 0.004422
vn 0.111097 0.993021 -0.039582
vn 0.111115 0.993019 -0.039584
vn 0.111114 0.993019 -0.039584
vn 0.111095 0.993021 -0.039581
vn -0.993797 0.111122 -0.004430
vn -0.993797 0.111121 -0.004430
# 17 vertex normals

vt 0.208008 0.504854 0.000504
vt 0.000183 0.475387 0.001114
vt 0.042053 0.000292 0.011086
vt 0.249939 0.029758 0.010468
vt 0.207947 0.075146 0.999504
vt 0.249817 0.550237 0.989525
vt 0.041992 0.579712 0.988914
vt 0.000061 0.104617 0.998886
vt 0.207947 0.006430 0.000504
vt 0.207947 0.579712 0.129562
vt 0.000061 0.579354 0.180374
vt 0.000061 0.006071 0.051308
vt 0.204908 0.000646 0.999268
vt 0.237171 0.573924 0.999268
vt 0.032391 0.579712 0.831787
vt 0.000126 0.006430 0.831787
vt 0.208008 0.000292 0.870438
vt 0.208008 0.573570 0.999504
vt 0.000183 0.573924 0.948685
vt 0.000183 0.000646 0.819633
vt 0.237173 0.006071 0.000244
vt 0.204906 0.579354 0.000244
vt 0.000124 0.573570 0.167969
vt 0.032391 0.000292 0.167969
# 24 texture coords

g Object09
usemtl Material__4
s 2
f 25/73/62 26/74/63 27/75/64 28/76/65 
s 4
f 29/77/66 30/78/67 31/79/66 32/80/66 
s 8
f 27/81/68 29/82/69 32/83/69 28/84/68 
s 16
f 26/85/70 30/86/71 29/87/71 27/88/72 
s 32
f 25/89/73 31/90/74 30/91/75 26/92/76 
s 64
f 28/93/77 32/94/78 31/95/77 25/96/77 
# 6 polygons

#
# object Object08
#

v  36.055275 -45.000183 137.256805
v  36.237160 -44.983971 137.258316
v  36.266212 -45.311401 137.272522
v  36.084328 -45.327614 137.271027
v  36.250732 -45.256756 138.563736
v  36.221581 -44.929333 138.549530
v  36.039745 -44.945538 138.548004
v  36.068848 -45.272972 138.562241
# 8 vertices

vn 0.012027 -0.042285 -0.999033
vn -0.012004 0.042302 0.999033
vn -0.012104 0.042234 0.999034
vn -0.012056 0.042266 0.999034
vn -0.011956 0.042334 0.999032
vn 0.088344 -0.995154 0.043171
vn 0.088381 -0.995151 0.043177
vn 0.088378 -0.995151 0.043176
vn 0.088341 -0.995154 0.043170
vn 0.996016 0.088799 0.008191
vn 0.996002 0.088957 0.008224
vn 0.996004 0.088927 0.008218
vn 0.996019 0.088769 0.008185
vn -0.088339 0.995154 -0.043175
vn -0.088320 0.995156 -0.043177
vn -0.088322 0.995156 -0.043177
vn -0.088341 0.995154 -0.043175
vn -0.996016 -0.088800 -0.008224
vn -0.996002 -0.088953 -0.008177
vn -0.996005 -0.088924 -0.008186
vn -0.996018 -0.088771 -0.008232
# 21 vertex normals

vt 0.232788 0.304546 0.001930
vt 0.032227 0.320047 0.000504
vt 0.000183 0.015813 0.062004
vt 0.200684 0.000312 0.063438
vt 0.232788 0.325449 0.998062
vt 0.200623 0.629683 0.936569
vt 0.000122 0.614182 0.937988
vt 0.032227 0.309944 0.999504
vt 0.249817 0.039063 0.025101
vt 0.232788 0.628779 0.516586
vt 0.032227 0.629688 0.491974
vt 0.049316 0.039966 0.000496
vt 0.127003 0.000317 0.871094
vt 0.249874 0.590039 0.802490
vt 0.129147 0.628779 0.931152
vt 0.006275 0.039063 0.999268
vt 0.232788 0.001216 0.483406
vt 0.249878 0.590933 0.974892
vt 0.049377 0.590039 0.999496
vt 0.032227 0.000317 0.508011
vt 0.249876 0.039966 0.197266
vt 0.127007 0.629688 0.128906
vt 0.006277 0.590933 0.000488
vt 0.129148 0.001216 0.068848
# 24 texture coords

g Object08
usemtl Material__4
s 2
f 33/97/79 34/98/79 35/99/79 36/100/79 
s 4
f 37/101/80 38/102/81 39/103/82 40/104/83 
s 8
f 35/105/84 37/106/85 40/107/86 36/108/87 
s 16
f 34/109/88 38/110/89 37/111/90 35/112/91 
s 32
f 33/113/92 39/114/93 38/115/94 34/116/95 
s 64
f 36/117/96 40/118/97 39/119/98 33/120/99 
# 6 polygons

#
# object Object07
#

v  35.991112 -43.451954 147.792023
v  36.172951 -43.436363 147.787338
v  36.202003 -43.734680 147.923050
v  36.020164 -43.750275 147.927734
v  36.186523 -43.200775 149.099976
v  36.157471 -42.902454 148.964264
v  35.975636 -42.918053 148.968964
v  36.004688 -43.216370 149.104660
# 8 vertices

vn 0.012024 -0.413096 -0.910608
vn 0.012043 -0.413084 -0.910614
vn 0.012002 -0.413109 -0.910603
vn 0.011983 -0.413121 -0.910597
vn -0.011976 0.413086 0.910613
vn -0.011989 0.413078 0.910617
vn -0.011983 0.413082 0.910615
vn -0.011970 0.413090 0.910612
vn 0.088377 -0.906674 0.412470
vn 0.088360 -0.906677 0.412468
vn 0.088362 -0.906676 0.412468
vn 0.088378 -0.906674 0.412470
vn 0.996019 0.085382 -0.025632
vn 0.996019 0.085381 -0.025631
vn 0.996018 0.085383 -0.025632
vn -0.088327 0.906678 -0.412473
vn -0.088397 0.906676 -0.412462
vn -0.088390 0.906676 -0.412463
vn -0.088321 0.906678 -0.412474
vn -0.996019 -0.085381 0.025631
vn -0.996018 -0.085383 0.025632
vn -0.996019 -0.085382 0.025632
vn -0.996019 -0.085381 0.025630
# 23 vertex normals

vt 0.270034 0.238460 -0.056259
vt 0.037312 0.251042 -0.061234
vt 0.000142 0.012965 0.073898
vt 0.232793 0.000377 0.078888
vt 0.270105 0.521535 1.056259
vt 0.232864 0.759620 0.921127
vt 0.000142 0.747029 0.926102
vt 0.037383 0.508952 1.061234
vt 0.289858 0.056163 0.017059
vt 0.270105 0.802757 0.686230
vt 0.037383 0.806537 0.669674
vt 0.057207 0.059955 0.000496
vt 0.095792 -0.046537 0.871338
vt 0.289855 0.700057 0.802979
vt 0.199007 0.802757 0.931396
vt 0.004947 0.056163 0.999512
vt 0.270034 -0.042757 0.313763
vt 0.289858 0.703837 0.982933
vt 0.057136 0.700057 0.999500
vt 0.037312 -0.046537 0.330318
vt 0.289856 0.059955 0.197266
vt 0.095795 0.806537 0.128906
vt 0.004949 0.703837 0.000488
vt 0.199009 -0.042757 0.068848
# 24 texture coords

g Object07
usemtl Material__4
s 2
f 41/121/100 42/122/101 43/123/102 44/124/103 
s 4
f 45/125/104 46/126/105 47/127/106 48/128/107 
s 8
f 43/129/108 45/130/109 48/131/110 44/132/111 
s 16
f 42/133/112 46/134/113 45/135/113 43/136/114 
s 32
f 41/137/115 47/138/116 46/139/117 42/140/118 
s 64
f 44/141/119 48/142/120 47/143/121 41/144/122 
# 6 polygons

